<svg width="24" height="24" viewBox="0 0 24 24" fill="none" xmlns="http://www.w3.org/2000/svg">
<path fill-rule="evenodd" clip-rule="evenodd" d="M12.4001 17.9C13.8856 17.1244 19 14.0879 19 9.04299C19 5.15325 15.866 2 12 2C8.13401 2 5 5.15325 5 9.04299C5 14.0879 10.1144 17.1244 11.5999 17.9C11.8539 18.0325 12.1461 18.0325 12.4001 17.9ZM12 12.0614C13.6569 12.0614 15 10.71 15 9.04299C15 7.37596 13.6569 6.02457 12 6.02457C10.3431 6.02457 9 7.37596 9 9.04299C9 10.71 10.3431 12.0614 12 12.0614Z" fill="white"/>
<path d="M18.0622 16.5C18.6766 16.9561 19 17.4734 19 18C19 18.5266 18.6766 19.0439 18.0622 19.5C17.4478 19.9561 16.5641 20.3348 15.5 20.5981C14.4359 20.8614 13.2288 21 12 21C10.7712 21 9.56414 20.8614 8.5 20.5981C7.43587 20.3348 6.5522 19.9561 5.93782 19.5C5.32344 19.0439 5 18.5266 5 18C5 17.4734 5.32344 16.9561 5.93782 16.5" stroke="white" stroke-width="2" stroke-linecap="round"/>
</svg>
